OpenSim_Sub22_baseline_IK_filtered.mot
version=1
nRows=42
nColumns=24
inDegrees=yes
endheader
time	pelvis_tilt	pelvis_list	pelvis_rotation	pelvis_tx	pelvis_ty	pelvis_tz	hip_flexion_r	hip_adduction_r	hip_rotation_r	knee_angle_r	ankle_angle_r	subtalar_angle_r	mtp_angle_r	hip_flexion_l	hip_adduction_l	hip_rotation_l	knee_angle_l	ankle_angle_l	subtalar_angle_l	mtp_angle_l	lumbar_extension	lumbar_bending	lumbar_rotation
5	-8.08125833	-2.91037430	5.22177177	0.99550728	0.93100150	-0.49646500	4.80890138	5.46181882	-2.60444160	-17.17794288	24.09966683	-0.00000276	-0.00000014	33.67784307	-3.34707443	0.07134494	-18.97920430	6.63050468	0.00000081	0.00000012	-10.35928357	4.77895889	0.10839769
5.01000000	-8.20315900	-3.09756713	4.92355169	0.99582412	0.92954993	-0.49721224	4.21996157	5.61610654	-2.53634602	-17.29498616	24.20935077	-0.00000246	-0.00000013	33.44786702	-3.41804602	-0.27090798	-15.33377502	6.61472657	0.00000126	0.00000013	-10.10744925	4.98682296	0.11158268
5.02000000	-8.33215244	-3.26992846	4.60271683	0.99628672	0.92808395	-0.49803549	3.65926015	5.73498299	-2.44622663	-17.48412554	24.26535401	-0.00000214	-0.00000012	33.22655281	-3.46576163	-0.59030416	-12.08627663	6.70944063	0.00000166	0.00000015	-9.83859479	5.18417194	0.11454064
5.03000000	-8.46929986	-3.41603170	4.25375183	0.99689901	0.92662037	-0.49891634	3.13402618	5.80753473	-2.31860751	-17.75991483	24.26480840	-0.00000179	-0.00000010	33.03217307	-3.48709209	-0.88351313	-9.32855986	6.90129398	0.00000199	0.00000016	-9.55282776	5.35640386	0.11700894
5.04000000	-8.61497343	-3.52707901	3.87463658	0.99766368	0.92517299	-0.49983753	2.65157378	5.82611631	-2.14064875	-18.13716852	24.20394854	-0.00000142	-0.00000009	32.88030071	-3.48093159	-1.14023200	-7.13547021	7.16876121	0.00000224	0.00000017	-9.25041853	5.49174739	0.11877631
5.05000000	-8.76772806	-3.59659260	3.46689931	0.99858310	0.92375566	-0.50078253	2.21805289	5.78632673	-1.90331115	-18.63070498	24.07797592	-0.00000105	-0.00000008	32.78039184	-3.44769187	-1.34600937	-5.55541403	7.48184473	0.00000238	0.00000017	-8.93298881	5.58092498	0.11967939
5.06000000	-8.92392301	-3.61981561	3.03506551	0.99965923	0.92238506	-0.50173578	1.83808974	5.68635740	-1.60184276	-19.25512714	23.88020316	-0.00000067	-0.00000006	32.73345638	-3.38846627	-1.48739632	-4.60215815	7.80197929	0.00000241	0.00000017	-8.60406981	5.61656714	0.11959340
5.07000000	-9.07802501	-3.59315037	2.58628786	1.00089224	0.92108250	-0.50268445	1.51527455	5.52603824	-1.23645036	-20.02459810	23.59993860	-0.00000029	-0.00000004	32.73159203	-3.30384243	-1.55642452	-4.25023722	8.08406198	0.00000234	0.00000018	-8.26905054	5.59277161	0.11842409
5.08000000	-9.22301950	-3.51313355	2.12936273	1.00227847	0.91987490	-0.50362007	1.25310854	5.30526232	-0.81319561	-20.95347311	23.22060407	0.00000008	-0.00000002	32.75856362	-3.19268777	-1.55381376	-4.43528899	8.28119479	0.00000214	0.00000018	-7.93519147	5.50413262	0.11609026
5.09000000	-9.35121545	-3.37537829	1.67305559	1.00380805	0.91879397	-0.50453865	1.05666519	5.02237544	-0.34424905	-22.05771706	22.72059457	0.00000045	0.00000000	32.79190649	-3.05154601	-1.49001564	-5.06087823	8.35186125	0.00000185	0.00000017	-7.61127827	5.34458581	0.11250219
5.10000000	-9.45571694	-3.17439601	1.22505750	1.00546279	0.91787269	-0.50544052	0.93463325	4.67354771	0.15307669	-23.35573566	22.07603391	0.00000081	0.00000002	32.80721366	-2.87470770	-1.38277435	-6.01246481	8.26923030	0.00000147	0.00000017	-7.30628557	5.10709621	0.10755305
5.11000000	-9.53161361	-2.90429184	0.79195194	1.00721555	0.91714092	-0.50633016	0.90024473	4.25324612	0.65814435	-24.86782129	21.26356044	0.00000116	0.00000005	32.78303848	-2.65467259	-1.25312093	-7.17620545	8.03023900	0.00000103	0.00000016	-7.02798853	4.78426095	0.10112667
5.12000000	-9.57577876	-2.55990748	0.37951047	1.00903191	0.91662219	-0.50721502	0.96997795	3.75545889	1.14871788	-26.61439858	20.26381309	0.00000150	0.00000007	32.70400152	-2.38296485	-1.12298687	-8.45674574	7.66063186	0.00000056	0.00000015	-6.78288679	4.36941131	0.09311722
5.13000000	-9.58594807	-2.13812559	-0.00720783	1.01087294	0.91633175	-0.50810413	1.16110242	3.17523441	1.60251913	-28.61364591	19.06536565	0.00000183	0.00000009	32.56143932	-2.05120900	-1.01409615	-9.78648983	7.21216982	0.00000009	0.00000014	-6.57685991	3.85802114	0.08345599
5.14000000	-9.56040578	-1.63907993	-0.36396131	1.01269685	0.91627475	-0.50900820	1.48959652	2.51013503	1.99912572	-30.87866394	17.66772420	0.00000214	0.00000011	32.35204164	-1.65223356	-0.94529257	-11.12277367	6.75088457	-0.00000036	0.00000013	-6.41526694	3.24927614	0.07213988
5.15000000	-9.49809524	-1.06712495	-0.68724670	1.01445921	0.91644544	-0.50994028	1.96820594	1.76163346	2.32198533	-33.41396811	16.08381974	0.00000242	0.00000012	32.07489402	-1.18119020	-0.92831705	-12.43723985	6.34229643	-0.00000076	0.00000012	-6.30279234	2.54754014	0.05925745
5.16000000	-9.39883291	-0.43145935	-0.97399476	1.01611307	0.91682836	-0.51091527	2.60461565	0.93650455	2.56011358	-36.21183055	14.34225155	0.00000265	0.00000013	31.72855578	-0.63687870	-0.96568714	-13.70534060	6.04134784	-0.00000110	0.00000011	-6.24325364	1.76334457	0.04500641
5.17000000	-9.26425939	0.25382968	-1.22139898	1.01761139	0.91740032	-0.51194780	3.40075407	0.04779491	2.70945407	-39.24929835	12.48828375	0.00000280	0.00000013	31.31040091	-0.02310948	-1.05228608	-14.90066275	5.88763105	-0.00000136	0.00000009	-6.23842702	0.91356356	0.02969414
5.18000000	-9.09920040	0.97039381	-1.42711520	1.01891134	0.91813254	-0.51304957	4.35314036	-0.88510665	2.77374400	-42.48646612	10.58343673	0.00000286	0.00000013	30.81820465	0.65042200	-1.17821276	-15.99425769	5.90219226	-0.00000156	0.00000008	-6.28627291	0.02076010	0.01372218
5.19000000	-8.91225615	1.69667541	-1.58988991	1.01997905	0.91899384	-0.51422745	5.45351000	-1.83740988	2.76396253	-45.86689932	8.70365989	0.00000280	0.00000012	30.25213657	1.36799549	-1.33093444	-16.95715391	6.08566443	-0.00000169	0.00000006	-6.37997796	-0.88798783	-0.00243699
5.20000000	-8.71524901	2.40920284	-1.71018958	1.02079403	0.91995463	-0.51548268	6.68955920	-2.78076445	2.69543203	-49.32068236	6.93487245	0.00000262	0.00000010	29.61596674	2.10859452	-1.49696474	-17.76420709	6.42052772	-0.00000178	0.00000005	-6.50817303	-1.78264761	-0.01826753
5.21000000	-8.52159606	3.08411999	-1.79025534	1.02135170	0.92099051	-0.51681117	8.04559410	-3.68564525	2.58357702	-52.76943133	5.36498766	0.00000233	0.00000008	28.91726641	2.84758092	-1.66326647	-18.39830498	6.87717405	-0.00000182	0.00000003	-6.65638183	-2.63227429	-0.03324384
5.22000000	-8.34414219	3.69876975	-1.83366231	1.02166234	0.92208436	-0.51820447	9.50314445	-4.52374333	2.44052447	-56.13216928	4.07312871	0.00000195	0.00000006	28.16681544	3.55891063	-1.81786526	-18.85380187	7.42022936	-0.00000184	0.00000002	-6.80929646	-3.40728593	-0.04686654
5.23000000	-8.19335790	4.23326034	-1.84474889	1.02174805	0.92322637	-0.51965111	11.04192800	-5.27022412	2.27361058	-59.33109522	3.11755235	0.00000151	0.00000003	27.37731064	4.21755853	-1.94957951	-19.13725460	8.01351020	-0.00000183	0.00000001	-6.95288398	-4.08166692	-0.05869768
5.24000000	-8.07628843	4.67210362	-1.82791203	1.02163875	0.92441264	-0.52113820	12.64101079	-5.90588944	2.08570914	-62.29644591	2.52446648	0.00000103	0.00000000	26.56161099	4.80209322	-2.04778375	-19.26507320	8.62401405	-0.00000180	0.00000001	-7.07588052	-4.63508919	-0.06839560
5.25000000	-7.99644608	5.00560853	-1.78667415	1.02136821	0.92564179	-0.52265302	14.27988541	-6.41887650	1.87659781	-64.96991548	2.28298088	0.00000055	-0.00000002	25.73140682	5.29692509	-2.10285900	-19.25982430	9.22486602	-0.00000177	0.00000000	-7.17032839	-5.05464663	-0.07574512
5.26000000	-7.95428910	5.23065214	-1.72279211	1.02097097	0.92691060	-0.52418410	15.93910984	-6.80556445	1.64441991	-67.30658367	2.35153966	0.00000010	-0.00000005	24.89650254	5.69369567	-2.10699055	-19.14672108	9.79683493	-0.00000172	0.00000000	-7.23143400	-5.33584118	-0.08067556
5.27000000	-7.94740949	5.35069185	-1.63572371	1.02047925	0.92821178	-0.52572166	17.60011771	-7.07058859	1.38680377	-69.27549757	2.67316435	-0.00000033	-0.00000007	24.06412684	5.99166783	-2.05479891	-18.95101990	10.32842885	-0.00000167	-0.00000000	-7.25780634	-5.48264174	-0.08326133
5.28000000	-7.97038821	5.37490962	-1.52256561	1.01991999	0.92953454	-0.52725813	19.24449831	-7.22593996	1.10149387	-70.85883028	3.19051430	-0.00000074	-0.00000009	23.23827527	6.19710325	-1.94354887	-18.69649398	10.81495794	-0.00000162	-0.00000001	-7.25208610	-5.50637545	-0.08370062
5.29000000	-8.01505695	5.31664550	-1.37847073	1.01931306	0.93086632	-0.52878901	20.85361605	-7.28928082	0.78666800	-72.04975394	3.85441266	-0.00000112	-0.00000010	22.41958318	6.32178394	-1.77269200	-18.40447934	11.25698867	-0.00000156	-0.00000001	-7.22097050	-5.42366437	-0.08227825
5.30000000	-8.07163302	5.19140820	-1.19746055	1.01867059	0.93219351	-0.53031286	22.40929844	-7.28154042	0.44131233	-72.84981009	4.62539169	-0.00000150	-0.00000011	21.60610189	6.38085380	-1.54273978	-18.09312040	11.65879093	-0.00000151	-0.00000001	-7.17406067	-5.25390080	-0.07932264
5.31000000	-8.13012325	5.01484642	-0.97372974	1.01799765	0.93350121	-0.53182949	23.89504481	-7.22406476	0.06590319	-73.26647481	5.47122594	-0.00000189	-0.00000012	20.79439021	6.39026768	-1.25427327	-17.77693849	12.02749531	-0.00000147	-0.00000001	-7.12217548	-5.01677998	-0.07516508
5.32000000	-8.18132589	4.80130620	-0.70322687	1.01729463	0.93477341	-0.53333703	25.29677095	-7.13617906	-0.33676658	-73.31101159	6.36392880	-0.00000230	-0.00000013	19.98021605	6.36462067	-0.90778900	-17.46669196	12.37261902	-0.00000142	-0.00000002	-7.07585999	-4.73060893	-0.07011244
5.33000000	-8.21802596	4.56325400	-0.38454133	1.01656013	0.93599234	-0.53483039	26.60363058	-7.03394908	-0.76135082	-72.99674487	7.27820285	-0.00000274	-0.00000014	19.15956689	6.31603279	-0.50401059	-17.16924581	12.70508963	-0.00000139	-0.00000002	-7.04361914	-4.41161869	-0.06443862
5.34000000	-8.23606414	4.31139062	-0.01894456	1.01579233	0.93713768	-0.53630137	27.80883613	-6.93010379	-1.20047479	-72.33790461	8.19089848	-0.00000322	-0.00000014	18.32972878	6.25400734	-0.04438350	-16.88751692	13.03571193	-0.00000138	-0.00000002	-7.03051008	-4.07401642	-0.05838848
5.35000000	-8.23381904	4.05518662	0.38958475	1.01498962	0.93818872	-0.53773881	28.90895125	-6.83459670	-1.64548435	-71.34870314	9.08069420	-0.00000374	-0.00000016	17.48896939	6.18580878	0.46784836	-16.62104953	13.37327897	-0.00000138	-0.00000002	-7.03873165	-3.73051255	-0.05218611
5.36000000	-8.21092349	3.80344679	0.83438783	1.01415207	0.93912811	-0.53912960	29.90223706	-6.75540323	-2.08732037	-70.04238525	9.92810468	-0.00000429	-0.00000017	16.63553301	6.11708253	1.02619776	-16.36705035	13.72290502	-0.00000139	-0.00000003	-7.06904004	-3.39285177	-0.04604130
5.37000000	-8.16797600	3.56446751	1.30655521	1.01328423	0.93994315	-0.54046094	30.78786005	-6.69901489	-2.51753339	-68.43048737	10.71537788	-0.00000486	-0.00000019	15.76743481	6.05235983	1.61978156	-16.12085447	14.08558117	-0.00000143	-0.00000004	-7.12084721	-3.07187875	-0.04015057
5.38000000	-8.10693854	3.34575230	1.79559824	1.01239763	0.94062502	-0.54172144	31.56588138	-6.67036143	-2.92936373	-66.52261797	11.42630255	-0.00000545	-0.00000020	14.88292514	5.99519128	2.23307519	-15.87611715	14.45891278	-0.00000148	-0.00000004	-7.19151433	-2.77722249	-0.03469295
5.39000000	-8.03132390	3.15377182	2.29052218	1.01151050	0.94116720	-0.54290115	32.23733801	-6.67279153	-3.31894471	-64.32693664	12.04667126	-0.00000603	-0.00000022	13.98122612	5.94834628	2.84765835	-15.62601314	14.83837509	-0.00000153	-0.00000005	-7.27614286	-2.51715301	-0.02982790
5.40000000	-7.94613375	2.99396757	2.78122626	1.01064444	0.94156351	-0.54399178	32.80447574	-6.70836047	-3.68625718	-61.85134619	12.56492939	-0.00000660	-0.00000025	13.06334859	5.91429235	3.44562593	-15.36507436	15.21901826	-0.00000160	-0.00000006	-7.36791676	-2.29875600	-0.02569769
5.41000000	-7.85769477	2.87073098	3.25939305	1.00982112	0.94180640	-0.54498635	33.27114296	-6.77787288	-4.03524148	-59.10508923	12.97246051	-0.00000713	-0.00000027	12.13258908	5.89545442	4.01227779	-15.09029017	15.59695512	-0.00000166	-0.00000006	-7.45857201	-2.12808136	-0.02242908
